<svg width="216" height="106" viewBox="22 8 180 90" xmlns="http://www.w3.org/2000/svg" fill="none">
  <g clip-path="url(#clip0_donor)">
    <rect width="180" height="90" transform="translate(22 8)" fill="#fae4e2"/>
    <!-- tabs -->
    <rect x="42" y="16" width="66" height="12" rx="3" fill="#f6d2cf"/>
    <rect x="112" y="16" width="66" height="12" rx="3" fill="#D52B1E"/>
    <!-- amount buttons -->
    <rect x="42" y="38" width="40" height="14" rx="7" fill="#ffffff" stroke="#D52B1E" stroke-width="2"/>
    <rect x="90" y="38" width="40" height="14" rx="7" fill="#D52B1E"/>
    <rect x="138" y="38" width="40" height="14" rx="7" fill="#ffffff" stroke="#D52B1E" stroke-width="2"/>
    <!-- heart + text -->
    <path d="M52 62 l4 -4 a4 4 0 0 1 6 0 a4 4 0 0 1 6 0 l4 4 -10 10 z" fill="#B42419" transform="translate(-6 0)"/>
    <rect x="70" y="64" width="80" height="5" rx="2.5" fill="#f6d2cf"/>
    <!-- pay button -->
    <rect x="42" y="78" width="136" height="14" rx="7" fill="#57110C"/>
  </g>
  <defs>
    <clipPath id="clip0_donor"><rect width="180" height="90" fill="white" transform="translate(22 8)"/></clipPath>
  </defs>
</svg>
